# AST/ASF file generated using VICON BodyLanguage
# -----------------------------------------------
:version 1.10
:name VICON
:units
  mass 1.0
  length 0.45
  angle deg
:documentation
   .ast/.asf automatically generated from VICON data using
   VICON BodyBuilder and BodyLanguage model FoxedUp or BRILLIANT.MOD
:root
   order TX TY TZ RX RY RZ
   axis XYZ
   position 0 0 0  
   orientation 0 0 0 
:bonedata
  begin
     id 1 
     name lhipjoint
     direction 0.62366 -0.717238 0.310833 
     length 2.53602 
     axis 0 0 0  XYZ
  end
  begin
     id 2 
     name lfemur
     direction 0.34202 -0.939693 0  
     length 7.40817  
     axis 0 0 20  XYZ
    dof rx ry rz
    limits (-160.0 20.0)
           (-70.0 70.0)
           (-60.0 70.0)
  end
  begin
     id 3 
     name ltibia
     direction 0.34202 -0.939693 0   
     length 7.7045   
     axis 0 0 20   XYZ
    dof rx
    limits (-10.0 170.0)
  end
  begin
     id 4 
     name lfoot
     direction 0.0673888 -0.185149 0.980397   
     length 2.09456   
     axis -90 7.62852e-016 20   XYZ
    dof rx rz
    limits (-45.0 90.0)
           (-70.0 20.0)
  end
  begin
     id 5 
     name ltoes
     direction 1.53575e-011 -4.21994e-011 1   
     length 1.05543   
     axis -90 7.62852e-016 20   XYZ
    dof rx
    limits (-90.0 20.0)
  end
  begin
     id 6 
     name rhipjoint
     direction -0.489018 -0.800347 0.346851   
     length 2.27268  
     axis 0 0 0  XYZ 
  end
  begin
     id 7 
     name rfemur
     direction -0.34202 -0.939693 0   
     length 7.55487   
     axis 0 0 -20   XYZ
    dof rx ry rz
    limits (-160.0 20.0)
           (-70.0 70.0)
           (-70.0 60.0)
  end
  begin
     id 8 
     name rtibia
     direction -0.34202 -0.939693 0   
     length 7.78969   
     axis 0 0 -20   XYZ
    dof rx
    limits (-10.0 170.0)
 end
 begin
     id 9 
     name rfoot
     direction -0.0859318 -0.236096 0.967923   
     length 2.19143  
     axis -90 -7.62852e-016 -20   XYZ
    dof rx rz
    limits (-45.0 90.0)
           (-20.0 70.0)
  end
  begin
     id 10 
     name rtoes
     direction -1.53538e-011 -4.21989e-011 1   
     length 1.09845   
     axis -90 -7.62852e-016 -20   XYZ
    dof rx
    limits (-90.0 20.0)
  end
  begin
     id 11 
     name lowerback
     direction -0.00762546 0.998978 -0.0445553   
     length 1.98161   
     axis 0 0 0   XYZ
    dof rx ry rz
    limits (-20.0 45.0)
           (-30.0 30.0)
           (-30.0 30.0)
  end
  begin
     id 12 
     name upperback
     direction 0.0422361 0.998867 -0.0219156   
     length 1.97558   
     axis 0 0 0   XYZ
    dof rx ry rz
    limits (-20.0 45.0)
           (-30.0 30.0)
           (-30.0 30.0)
  end
  begin
     id 13 
     name thorax
     direction 0.0442465 0.999021 7.47603e-005   
     length 1.97799   
     axis 0 0 0   XYZ
    dof rx ry rz
    limits (-20.0 45.0)
           (-30.0 30.0)
           (-30.0 30.0)
  end
  begin
     id 14 
     name lowerneck
     direction 0.00312169 0.984641 0.174564   
     length 1.78995   
     axis 0 0 0   XYZ
    dof rx ry rz
    limits (-20.0 45.0)
           (-30.0 30.0)
           (-30.0 30.0)
  end
  begin
     id 15 
     name upperneck
     direction -0.0383028 0.985255 -0.166749   
     length 1.83053   
     axis 0 0 0   XYZ
    dof rx ry rz
    limits (-20.0 45.0)
           (-30.0 30.0)
           (-30.0 30.0)
  end
  begin
     id 16
     name head
     direction -0.0129546 0.997059 -0.0755386  
     length 1.84088  
     axis 0 0 0   XYZ
    dof rx ry rz
    limits (-20.0 45.0)
           (-30.0 30.0)
           (-30.0 30.0)
  end
  begin
     id 17 
     name lclavicle
     direction 0.912857 0.370519 -0.171488  
     length 3.51279  
     axis 0 0 0   XYZ
    dof ry rz
    limits (-20.0 10.0)
           (0.0 20.0)
  end
  begin
     id 18 
     name lhumerus
     direction 1 -4.48962e-011 3.64361e-027   
     length 4.95663   
     axis 180 -30 -90   XYZ
    dof rx ry rz
    limits (-60.0 90.0)
           (-90.0 90.0)
           (-90.0 90.0)
  end
  begin
     id 19
     name lradius
     direction 1 -4.48974e-011 5.97202e-027   
     length 3.38177   
     axis 180 -30 -90   XYZ
    dof rx
    limits (-10.0 170.0)
  end
  begin
     id 20
     name lwrist
     direction 1 -4.4896e-011 9.83288e-027   
     length 1.69088   
     axis -9.31221e-015 90 90   XYZ
    dof ry
    limits (-180.0 0.0)
 end
  begin
     id 21 
     name lhand
     direction 1 -4.4902e-011 1.96551e-026   
     length 0.662909   
     axis -1.25475e-014 90 90   XYZ
    dof rx rz
    limits (-90.0 90.0)
           (-45.0 45.0)
  end
  begin
     id 22 
     name lfingers
     direction 1 -4.48971e-011 3.93277e-026   
     length 0.534454   
     axis -2.50945e-014 90 90   XYZ
    dof rx
    limits (0.0 90.0)
  end
  begin
     id 23
     name lthumb
     direction 0.707107 -6.34933e-011 0.707107   
     length 0.767373   
     axis -90 45 -4.80359e-014   XYZ
    dof rx rz
    limits (-45.0 45.0)
           (-45.0 45.0)
  end
  begin
     id 24 
     name rclavicle
     direction -0.900919 0.395364 -0.178976   
     length 3.40627  
     axis 0 0 0   XYZ 
    dof ry rz
    limits (-10.0 20.0)
           (-20.0 0.0)
  end
  begin
     id 25 
     name rhumerus
     direction -1 -4.48969e-011 1.03875e-027  
     length 5.08365   
     axis 180 30 90   XYZ
    dof rx ry rz
    limits (-90.0 60.0)
           (-90.0 90.0)
           (-90.0 90.0)
  end
  begin
     id 26 
     name rradius
     direction -1 -4.48951e-011 5.02733e-027   
     length 3.35984   
     axis 180 30 90   XYZ
    dof rx
    limits (-10.0 170.0)
  end
  begin
     id 27 
     name rwrist
     direction -1 -4.49011e-011 9.82828e-027   
     length 1.67992   
     axis -9.31221e-015 -90 -90   XYZ
    dof ry
    limits (-180.0 0.0)
  end
  begin
     id 28
     name rhand
     direction -1 -4.48894e-011 1.96774e-026   
     length 0.820764   
     axis -1.25475e-014 -90 -90   XYZ
    dof rx rz
    limits (-90.0 90.0)
           (-45.0 45.0)
  end
  begin
     id 29
     name rfingers
     direction -1 -4.49095e-011 3.92833e-026   
     length 0.661721   
     axis -2.50945e-014 -90 -90   XYZ
    dof rx
    limits (0.0 90.0)
  end
  begin
     id 30
     name rthumb
     direction -0.707107 -6.34881e-011 0.707107   
     length 0.950103   
     axis -90 -45 4.80359e-014   XYZ
    dof rx rz
    limits (-45.0 45.0)
           (-45.0 45.0)
  end
:hierarchy
  begin
    root lhipjoint rhipjoint lowerback
    lhipjoint lfemur
    lfemur ltibia
    ltibia lfoot
    lfoot ltoes
    rhipjoint rfemur
    rfemur rtibia
    rtibia rfoot
    rfoot rtoes
    lowerback upperback
    upperback thorax
    thorax lowerneck lclavicle rclavicle
    lowerneck upperneck
    upperneck head
    lclavicle lhumerus
    lhumerus lradius
    lradius lwrist
    lwrist lhand lthumb
    lhand lfingers
    rclavicle rhumerus
    rhumerus rradius
    rradius rwrist
    rwrist rhand rthumb
    rhand rfingers
  end

#!OML:ASF I:\golf\golf\golf 2\Subject 1\2002-09-07\Subject1.ASF
:FULLY-SPECIFIED
:DEGREES
78
root -6.71471 17.6656 -0.427992 -37.0239 85.2844 -50.8095
lowerback 5.32344 4.0094 -3.10386
upperback 4.4464 5.34594 4.08196
thorax 0.950814 2.62515 5.7065
lowerneck -15.2451 -2.27005 0.469081
upperneck 39.186 0.125489 -4.33112
head 16.7269 0.0989826 -1.81792
rclavicle -2.0276e-014 9.54166e-015
rhumerus -9.46565 2.18739 -103.585
rradius 31.4893
rwrist -57.3757
rhand -26.3733 -5.94765
rfingers 7.12502
rthumb 0.185233 -35.9273
lclavicle -2.0276e-014 9.54166e-015
lhumerus -6.69393 -63.584 103.281
lradius 24.5283
lwrist 28.8152
lhand 0.466467 63.0327
lfingers 7.12502
lthumb -153.963 88.7315
rfemur -32.3119 -3.58586 14.6423
rtibia 35.6131
rfoot -12.1602 -3.00654
rtoes -0.627546
lfemur -28.6177 10.9771 -9.36708
ltibia 32.8744
lfoot -13.257 -2.87759
ltoes -21.797
79
root -6.72044 17.665 -0.401843 -33.6906 84.9395 -47.5138
lowerback 5.27309 4.06819 -3.33284
upperback 4.48773 5.41482 4.03433
thorax 0.998254 2.65272 5.78693
lowerneck -15.2649 -2.13896 0.42233
upperneck 39.0884 0.323966 -4.33601
head 16.689 0.166385 -1.77493
rclavicle 1.31198e-014 6.36111e-015
rhumerus -9.53153 2.31048 -103.707
rradius 31.9214
rwrist -57.7353
rhand -26.9401 -6.03935
rfingers 7.12502
rthumb -0.362259 -36.0188
lclavicle 1.31198e-014 6.36111e-015
lhumerus -6.01018 -64.3752 102.43
lradius 24.5452
lwrist 28.5323
lhand 0.990996 62.6972
lfingers 7.12502
lthumb -153.461 89.1419
rfemur -32.5226 -3.47152 14.7715
rtibia 35.6773
rfoot -11.5669 -2.39837
rtoes 1.52543
lfemur -28.4819 10.9785 -9.18247
ltibia 32.8106
lfoot -13.1549 -2.40201
ltoes -21.5754
80
root -6.72501 17.6623 -0.376105 -31.9295 84.596 -45.7737
lowerback 5.22253 4.09241 -3.53037
upperback 4.53022 5.44133 4.06228
thorax 1.04782 2.65971 5.93184
lowerneck -15.2542 -2.02397 0.338448
upperneck 38.9677 0.53636 -4.40825
head 16.6325 0.225311 -1.75172
rclavicle -5.32743e-014 -1.27222e-014
rhumerus -9.61903 2.32769 -103.778
rradius 32.37
rwrist -58.1956
rhand -27.7793 -6.01366
rfingers 7.12502
rthumb -1.17278 -35.9902
lclavicle -5.32743e-014 -1.27222e-014
lhumerus -5.3055 -64.9361 101.751
lradius 24.4153
lwrist 28.0754
lhand 1.30387 62.1894
lfingers 7.12502
lthumb -153.161 89.6953
rfemur -32.6805 -3.44344 14.9959
rtibia 35.7292
rfoot -11.33 -1.84231
rtoes 2.19066
lfemur -28.3542 11.0038 -8.9317
ltibia 32.7503
lfoot -13.1122 -1.99039
ltoes -21.5724
81
root -6.73075 17.6603 -0.346674 -31.265 84.2558 -45.119
lowerback 5.17878 4.09371 -3.70694
upperback 4.57525 5.43925 4.12275
thorax 1.09874 2.65272 6.10076
lowerneck -15.2017 -1.89701 0.22349
upperneck 38.8339 0.778961 -4.48282
head 16.5605 0.292867 -1.71761
rclavicle 3.4191e-014 3.97569e-015
rhumerus -9.77767 2.45843 -103.782
rradius 32.9155
rwrist -58.7331
rhand -28.7464 -5.9593
rfingers 7.12502
rthumb -2.10681 -35.9286
lclavicle 3.4191e-014 3.97569e-015
lhumerus -4.52929 -65.819 100.958
lradius 24.3965
lwrist 27.9137
lhand 1.55588 61.4589
lfingers 7.12502
lthumb -152.92 269.537
rfemur -32.7956 -3.36939 15.3044
rtibia 35.7734
rfoot -11.3153 -1.52804
rtoes 1.82273
lfemur -28.2412 10.9696 -8.58124
ltibia 32.7084
lfoot -13.0914 -1.56119
ltoes -21.9224
82
root -6.73808 17.6597 -0.31683 -30.485 83.9398 -44.3474
lowerback 5.13931 4.08754 -3.89725
upperback 4.64333 5.4272 4.176
thorax 1.17232 2.63935 6.27167
lowerneck -15.2181 -1.76134 0.0961337
upperneck 38.7301 1.04672 -4.57041
head 16.5235 0.366841 -1.68426
rclavicle -2.14687e-014 -3.97569e-015
rhumerus -9.90269 2.79037 -103.674
rradius 33.4715
rwrist -59.297
rhand -29.4885 -6.12331
rfingers 7.12502
rthumb -2.8235 -36.0844
lclavicle -2.14687e-014 -3.97569e-015
lhumerus -3.50777 -66.9499 99.8868
lradius 24.5249
lwrist 27.8321
lhand 1.79473 60.8864
lfingers 7.12502
lthumb -152.692 268.929
rfemur -32.8996 -3.27382 15.5867
rtibia 35.8048
rfoot -11.3447 -1.32099
rtoes 1.69854
lfemur -28.1192 10.8203 -8.23557
ltibia 32.6848
lfoot -13.0159 -1.10413
ltoes -21.8061
83
root -6.74534 17.6577 -0.288801 -29.0645 83.6031 -42.925
lowerback 5.09399 4.10323 -4.06294
upperback 4.73778 5.44456 4.16007
thorax 1.28115 2.63961 6.35604
lowerneck -15.3478 -1.63642 0.00998193
upperneck 38.6734 1.26354 -4.60457
head 16.5367 0.431179 -1.64636
rclavicle 5.24792e-014 3.57812e-014
rhumerus -9.83407 2.78373 -103.585
rradius 33.8782
rwrist -59.897
rhand -30.1866 -6.03275
rfingers 7.12502
rthumb -3.49763 -35.9838
lclavicle 5.24792e-014 3.57812e-014
lhumerus -2.17218 -68.1463 98.5317
lradius 24.5639
lwrist 27.6528
lhand 2.07763 60.2731
lfingers 7.12502
lthumb -152.421 268.272
rfemur -33.014 -3.37874 15.8525
rtibia 35.8294
rfoot -11.3717 -0.768681
rtoes 2.05112
lfemur -27.9646 10.7489 -7.97108
ltibia 32.6611
lfoot -12.9241 -0.629631
ltoes -22.0187
84
root -6.75111 17.657 -0.25748 -27.9892 83.2538 -41.886
lowerback 5.03374 4.11121 -4.16015
upperback 4.78508 5.45225 4.07677
thorax 1.36239 2.63776 6.33012
lowerneck -15.4465 -1.49719 0.0341034
upperneck 38.6348 1.44538 -4.58747
head 16.5486 0.50489 -1.6118
rclavicle -5.12864e-014 1.59028e-014
rhumerus -9.88886 2.7814 -103.565
rradius 34.5078
rwrist -60.884
rhand -31.1105 -5.83294
rfingers 7.12502
rthumb -4.38981 -35.7674
lclavicle -5.12864e-014 1.59028e-014
lhumerus -0.923605 -69.3263 97.1801
lradius 24.5919
lwrist 27.4034
lhand 2.32407 59.938
lfingers 7.12502
lthumb -152.186 267.9
rfemur -33.1648 -3.57324 16.1698
rtibia 35.8527
rfoot -11.3893 -0.00784528
rtoes 2.82832
lfemur -27.8547 10.7006 -7.67763
ltibia 32.6343
lfoot -12.8035 -0.165452
ltoes -22.5768
